<svg id="visual" viewBox="0 0 900 600" width="900" height="600" xmlns="http://www.w3.org/2000/svg" xmlns:xlink="http://www.w3.org/1999/xlink" version="1.1"><rect x="0" y="0" width="900" height="600" fill="#000000"></rect><path d="M0 127L21.5 123.5C43 120 86 113 128.8 116.3C171.7 119.7 214.3 133.3 257.2 148.8C300 164.3 343 181.7 385.8 185.8C428.7 190 471.3 181 514.2 167C557 153 600 134 642.8 133C685.7 132 728.3 149 771.2 158.3C814 167.7 857 169.3 878.5 170.2L900 171L900 0L878.5 0C857 0 814 0 771.2 0C728.3 0 685.7 0 642.8 0C600 0 557 0 514.2 0C471.3 0 428.7 0 385.8 0C343 0 300 0 257.2 0C214.3 0 171.7 0 128.8 0C86 0 43 0 21.5 0L0 0Z" fill="#FFFFFF" stroke-linecap="round" stroke-linejoin="miter"></path></svg>